<svg viewBox="0 0 211.42 66.26" xmlns="http://www.w3.org/2000/svg"><g fill="#ffffff"><path d="m20.07 34.65-11.23 11.49v16.12h-8.84v-62.26h8.84v34.83l33.52-34.83h10.13l-26.34 28 28.18 34.26h-10.33z"/><path d="m108.89 32.72-21.89-12.79-12.15-7-12 20.94.15 19.6 21.76 12.79 2.24-1.26v-18.57l9.74-17.23 9.94 5.74v18.53l2.21-1.3z"/><path d="m119.15 56.87 3.5-6.67a30.56 30.56 0 0 0 16.35 4.8c7.92 0 11.05-2.41 11.05-6.49 0-10.56-29.65-1.48-29.65-20.19 0-8.52 7.55-14.08 19.52-14.08 6.08 0 13.08 1.66 17.13 4.26l-3.68 6.67a23.87 23.87 0 0 0 -13.37-3.69c-7.37 0-11.05 2.78-11.05 6.49 0 11.12 29.65 2 29.65 20.38 0 8.52-7.73 13.9-20.26 13.9-7.59.18-15.34-2.25-19.19-5.38z"/><path d="m211.42 33.35v28.54h-8.11v-6.3c-2.76 4.26-8.1 6.67-15.47 6.67-10.68 0-17.31-5.75-17.31-13.9 0-7.6 4.79-13.71 18.79-13.71h13.44v-1.65c0-7.23-4.24-11.3-12.52-11.3a24.92 24.92 0 0 0 -14.92 5l-3.5-6.48c4.79-3.89 11.79-6.12 19.34-6.12 13.07.17 20.26 6.47 20.26 19.25zm-8.48 14.08v-6.67h-13.07c-8.47 0-10.87 3.34-10.87 7.24 0 4.63 3.87 7.6 10.32 7.6 6.44.17 11.6-2.6 13.62-8.17z"/></g></svg>